<?xml version="1.0" encoding="UTF-8" standalone="no"?>
<!-- Created with Inkscape (http://www.inkscape.org/) -->

<svg
   width="32"
   height="32"
   viewBox="0 0 32 32"
   version="1.1"
   id="svg1"
   inkscape:version="1.4.2 (ebf0e94, 2025-05-08)"
   sodipodi:docname="ustawienia.svg"
   xmlns:inkscape="http://www.inkscape.org/namespaces/inkscape"
   xmlns:sodipodi="http://sodipodi.sourceforge.net/DTD/sodipodi-0.dtd"
   xmlns="http://www.w3.org/2000/svg"
   xmlns:svg="http://www.w3.org/2000/svg">
  <sodipodi:namedview
     id="namedview1"
     pagecolor="#ffffff"
     bordercolor="#000000"
     borderopacity="0.25"
     inkscape:showpageshadow="2"
     inkscape:pageopacity="0.0"
     inkscape:pagecheckerboard="0"
     inkscape:deskcolor="#d1d1d1"
     inkscape:document-units="px"
     inkscape:zoom="32.990951"
     inkscape:cx="18.686942"
     inkscape:cy="15.807365"
     inkscape:window-width="3200"
     inkscape:window-height="1711"
     inkscape:window-x="2391"
     inkscape:window-y="-9"
     inkscape:window-maximized="1"
     inkscape:current-layer="layer1" />
  <defs
     id="defs1" />
  <g
     inkscape:label="Warstwa 1"
     inkscape:groupmode="layer"
     id="layer1">
    <path
       d="m 18.063313,2.2332604 0.683008,-0.084322 c -0.04417,-0.3453188 -0.333272,-0.603103 -0.683008,-0.603103 z m -4.130007,0 V 1.5446309 c -0.345318,0 -0.640044,0.2609969 -0.683008,0.603103 z m 4.508172,3.0251492 -0.683008,0.084322 c 0.03593,0.2850888 0.24895,0.5219937 0.530826,0.5858374 z m 3.42347,1.4190177 -0.369411,0.5822236 c 0.244935,0.1565979 0.560942,0.1365208 0.789414,-0.037186 z m 2.40719,-1.8727491 0.486658,-0.486658 C 24.513861,4.0730842 24.123571,4.0449773 23.849324,4.2618015 Z m 2.920349,2.9203491 0.543677,0.4228142 C 27.948975,7.8707837 27.924883,7.4837063 27.679945,7.2383693 Z M 25.320139,10.13262 24.776464,9.7098058 c -0.176675,0.2288738 -0.192736,0.5444792 -0.03719,0.7898142 z m 1.419018,3.42347 -0.671363,0.152582 c 0.06424,0.281074 0.297134,0.494689 0.585836,0.530827 z m 3.025149,0.377441 h 0.688629 c 0,-0.345319 -0.260996,-0.640043 -0.603103,-0.683008 z m 0,4.130048 0.08432,0.683008 c 0.345319,-0.04417 0.603103,-0.333273 0.603103,-0.683008 z m -3.025149,0.377441 -0.08432,-0.683008 c -0.285089,0.03598 -0.521993,0.248951 -0.585836,0.530827 z m -1.419018,3.42347 -0.582222,-0.36941 c -0.156598,0.244936 -0.136522,0.560942 0.03719,0.789815 z m 1.872348,2.40719 0.486658,0.486658 c 0.244936,-0.244934 0.273043,-0.635225 0.05622,-0.909472 z m -2.920349,2.920351 -0.422814,0.543675 c 0.277057,0.212813 0.664135,0.188721 0.909472,-0.05622 z m -2.40719,-1.87235 0.422814,-0.543675 C 22.058888,24.599331 21.743283,24.58327 21.498348,24.73882 Z m -3.42347,1.419018 -0.152583,-0.671363 c -0.281073,0.06424 -0.494689,0.297135 -0.530827,0.585837 z m -0.377442,3.02515 v 0.688629 c 0.345319,0 0.640044,-0.260996 0.683007,-0.603102 z m -4.130008,0 -0.683007,0.08432 c 0.04417,0.345318 0.333273,0.603102 0.683007,0.603102 z m -0.37744,-3.02515 0.683007,-0.08432 c -0.03593,-0.285088 -0.24895,-0.521992 -0.530827,-0.585836 z m -3.423471,-1.419018 0.369411,-0.582222 c -0.244936,-0.156598 -0.5609418,-0.136521 -0.7898156,0.03719 z m -2.4071886,1.87235 -0.4866579,0.486658 c 0.2449347,0.244934 0.6352248,0.273041 0.9094727,0.05622 z M 4.8055781,24.27168 4.262304,23.848866 c -0.2128117,0.277058 -0.1887197,0.664136 0.056219,0.909472 z m 1.8727503,-2.40719 0.5436753,0.422815 c 0.176675,-0.228874 0.1927359,-0.544479 0.037138,-0.789816 z M 5.2593108,18.44102 5.9306736,18.288437 C 5.8664287,18.007364 5.63354,17.793749 5.3448374,17.757611 Z M 2.2341616,18.063579 H 1.5455321 c 0,0.345318 0.2609969,0.640044 0.603103,0.683008 z m 0,-4.130048 -0.084322,-0.683008 c -0.3453188,0.04417 -0.603103,0.333273 -0.603103,0.683008 z m 3.0251492,-0.377441 0.084322,0.683008 c 0.2850888,-0.03593 0.5219925,-0.248951 0.5858362,-0.530827 z m 1.4190176,-3.42347 0.5822225,0.36941 C 7.4171488,10.257095 7.3970729,9.9410888 7.2234131,9.712215 Z M 4.8055781,7.7254284 4.3189201,7.2387704 C 4.0739854,7.4837063 4.0458785,7.8739964 4.2627015,8.1482426 Z M 7.7259284,4.8050793 8.1487432,4.2618051 C 7.8716849,4.0489922 7.4846063,4.0730842 7.2392705,4.3180238 Z M 10.133117,6.6778296 9.7103032,7.2211038 c 0.2288738,0.1766737 0.5444788,0.1927358 0.7898158,0.037186 z m 3.423471,-1.4190176 0.152583,0.6713628 c 0.281072,-0.064241 0.494688,-0.2971349 0.530826,-0.5858363 z m 4.508171,-3.7137787 h -4.130008 v 1.3768566 h 4.130008 z m 1.06085,3.6282522 -0.37744,-3.0251505 -1.366016,0.17266 0.377441,3.0251492 z M 22.233475,6.095606 C 21.131668,5.4005523 19.904584,4.8837794 18.594381,4.587448 l -0.305165,1.3423256 c 1.154808,0.2609957 2.236137,0.7167364 3.20865,1.3302785 z m 0.05622,1.1254978 2.40719,-1.8723492 -0.845628,-1.0865483 -2.40719,1.8727503 z m 1.498119,-1.9293665 2.92035,2.9203491 0.973316,-0.973316 -2.92035,-2.9203491 z m 2.863734,2.0108768 -1.87275,2.4075928 1.086548,0.8452271 1.872348,-2.4071914 z m 0.761307,6.1018569 c -0.297137,-1.310202 -0.813107,-2.536885 -1.50816,-3.6390935 l -1.164446,0.7344045 c 0.613542,0.972512 1.068479,2.054242 1.330278,3.208649 z m 2.439313,-0.152583 -3.025151,-0.37744 -0.172658,1.366015 3.025551,0.37744 z m 0.603102,4.812975 v -4.130047 h -1.376455 v 4.130047 z m -3.628253,1.061252 3.025151,-0.37744 -0.17266,-1.366016 -3.025551,0.377441 z m -0.92232,3.107866 c 0.695053,-1.101806 1.211424,-2.328891 1.508158,-3.639094 l -1.342326,-0.305165 c -0.260996,1.15481 -0.716736,2.236137 -1.330278,3.208651 z m 1.833399,1.617776 -1.872349,-2.40719 -1.086548,0.845228 1.87275,2.407189 z m -2.976966,3.829823 2.92035,-2.920351 -0.973316,-0.973316 -2.92035,2.920351 z m -3.317063,-1.815733 2.40719,1.872349 0.845227,-1.086549 -2.407191,-1.87275 z m -2.849279,1.547107 C 19.90499,27.115819 21.131673,26.59985 22.23348,25.904796 L 21.499074,24.74035 c -0.972513,0.613542 -2.053841,1.068479 -3.208649,1.330278 z m 0.152583,2.439313 0.37744,-3.02515 -1.366015,-0.172659 -0.377441,3.025551 z m -4.812935,0.603102 h 4.130008 v -1.376857 h -4.130011 z m -1.06085,-3.628252 0.37744,3.02515 1.366016,-0.17266 -0.377441,-3.02555 z M 9.7657183,25.904796 c 1.1018067,0.695054 2.3288907,1.211424 3.6390937,1.508158 l 0.305165,-1.342326 C 12.555168,25.809633 11.47384,25.353892 10.501327,24.74035 Z m -1.6173738,1.8334 2.4071895,-1.872349 -0.8452272,-1.086549 -2.407189,1.872751 z M 4.3185226,24.761229 7.2388717,27.68158 8.2121882,26.708264 5.2918386,23.787913 Z m 1.8157318,-3.317063 -1.8727491,2.40719 1.0865483,0.845227 1.8727491,-2.407191 z M 4.5871482,18.594887 c 0.2971348,1.310203 0.8131043,2.536886 1.5081579,3.639094 L 7.2597522,21.499578 C 6.646209,20.527064 6.1912729,19.445334 5.9294726,18.290927 Z m -2.439313,0.152583 3.0251492,0.377441 0.17266,-1.366016 -3.0251504,-0.37744 z M 1.5447323,13.934495 v 4.130048 H 2.9215889 V 13.934495 Z M 5.1729844,12.873644 2.1478352,13.251086 2.320494,14.617101 5.3456444,14.239659 Z M 6.0953061,9.7657787 C 5.4002525,10.867586 4.8838807,12.094671 4.5871482,13.404872 l 1.3423244,0.305166 C 6.1904695,12.555229 6.646209,11.4739 7.2597522,10.501388 Z M 4.2619065,8.1480017 6.1346568,10.555193 7.2212051,9.709966 5.3484548,7.3027756 Z M 7.2388717,4.3181804 4.3185226,7.2385295 5.2918386,8.2118455 8.2121882,5.2914964 Z M 10.555534,6.1339122 8.1483445,4.2611631 7.3035189,5.3477114 l 2.407189,1.872348 z m 2.849278,-1.5475074 c -1.310203,0.2971336 -2.536886,0.8131043 -3.6386925,1.508158 l 0.7344045,1.1644449 c 0.972512,-0.6135421 2.053841,-1.0684793 3.20865,-1.3302785 z m -0.152583,-2.439313 -0.377441,3.0251493 1.366016,0.1726588 0.37744,-3.0251493 z"
       fill="#000000"
       id="path1"
       style="fill:#000000;fill-opacity:1;stroke:none;stroke-width:0.25606;stroke-dasharray:none;stroke-opacity:1" />
    <path
       id="circle1"
       style="stroke:none;stroke-width:1.69495"
       d="M 16 9.2207031 A 6.7797289 6.7798162 0 0 0 9.2207031 16 A 6.7797289 6.7798162 0 0 0 16 22.779297 A 6.7797289 6.7798162 0 0 0 22.779297 16 A 6.7797289 6.7798162 0 0 0 16 9.2207031 z M 16 10.589844 A 5.4092855 5.4093552 0 0 1 21.410156 16 A 5.4092855 5.4093552 0 0 1 16 21.410156 A 5.4092855 5.4093552 0 0 1 10.589844 16 A 5.4092855 5.4093552 0 0 1 16 10.589844 z " />
  </g>
</svg>
